<svg xmlns="http://www.w3.org/2000/svg" xmlns:xlink="http://www.w3.org/1999/xlink" width="100" zoomAndPan="magnify" viewBox="0 0 75 50.999998" height="68" preserveAspectRatio="xMidYMid meet" version="1.0"><defs><clipPath id="246c7cf220"><path d="M 24.105469 3.121094 L 54.824219 3.121094 L 54.824219 13.171875 L 24.105469 13.171875 Z M 24.105469 3.121094 " clip-rule="nonzero"/></clipPath></defs><path fill="#000000" d="M 19.746094 13.488281 C 19.765625 13.140625 19.757812 12.070312 19.003906 11.21875 C 18.015625 10.105469 16.128906 9.820312 15.660156 10.433594 C 15.304688 10.90625 15.773438 11.902344 16.238281 12.460938 C 17.425781 13.859375 19.539062 13.527344 19.746094 13.488281 Z M 19.746094 13.488281 " fill-opacity="1" fill-rule="nonzero"/><path fill="#000000" d="M 58.863281 13.488281 C 58.847656 13.140625 58.855469 12.070312 59.605469 11.21875 C 60.59375 10.105469 62.480469 9.820312 62.949219 10.433594 C 63.304688 10.90625 62.835938 11.902344 62.375 12.460938 C 61.183594 13.859375 59.074219 13.527344 58.863281 13.488281 Z M 58.863281 13.488281 " fill-opacity="1" fill-rule="nonzero"/><g clip-path="url(#246c7cf220)"><path fill="#000000" d="M 51.902344 13.089844 L 31.679688 13.089844 C 31.476562 13.089844 31.289062 13.097656 30.910156 13.089844 C 29.9375 13.089844 29.460938 13.089844 29.363281 13.042969 C 28.546875 12.660156 29.191406 9.09375 29.53125 7.457031 C 29.03125 8.441406 28.59375 9.453125 28.222656 10.492188 C 27.679688 12.03125 27.550781 12.683594 26.953125 12.976562 C 26.351562 13.269531 25.308594 12.9375 24.773438 12.355469 C 24.039062 11.542969 23.925781 10.160156 24.554688 8.988281 L 25.566406 5.984375 C 25.972656 4.769531 27.183594 3.152344 30.011719 3.152344 L 49.863281 3.152344 C 52.234375 3.152344 53.230469 4.796875 53.625 6.027344 L 54.597656 9.035156 C 55.238281 11.019531 53.859375 13.089844 51.902344 13.089844 Z M 51.902344 13.089844 " fill-opacity="1" fill-rule="nonzero"/></g><path fill="#000000" d="M 30.074219 22.203125 C 30.027344 22.285156 28.101562 21.402344 26.15625 19.890625 C 23.140625 17.542969 21.449219 14.726562 21.527344 14.652344 C 21.609375 14.578125 22.28125 15.550781 24.054688 17.265625 C 24.652344 17.839844 25.648438 18.804688 27.015625 19.914062 C 28.867188 21.417969 30.109375 22.148438 30.074219 22.203125 Z M 30.074219 22.203125 " fill-opacity="1" fill-rule="nonzero"/><path fill="#000000" d="M 48.261719 22.203125 C 48.308594 22.285156 50.234375 21.402344 52.179688 19.890625 C 55.195312 17.542969 56.886719 14.726562 56.804688 14.652344 C 56.726562 14.578125 56.046875 15.550781 54.273438 17.265625 C 53.683594 17.839844 52.679688 18.804688 51.320312 19.914062 C 49.464844 21.417969 48.21875 22.148438 48.261719 22.203125 Z M 48.261719 22.203125 " fill-opacity="1" fill-rule="nonzero"/><path fill="#000000" d="M 27.21875 22.707031 C 27.089844 23.214844 24.5625 23.214844 22.386719 22.414062 C 21.722656 22.171875 18.875 21.125 18.210938 18.691406 C 18.136719 18.433594 17.863281 17.4375 18.25 17.160156 C 18.792969 16.78125 20.097656 18.222656 22.671875 19.9375 C 25.617188 21.886719 27.332031 22.269531 27.21875 22.707031 Z M 27.21875 22.707031 " fill-opacity="1" fill-rule="nonzero"/><path fill="#000000" d="M 51.480469 22.707031 C 51.609375 23.214844 54.136719 23.214844 56.3125 22.414062 C 56.976562 22.171875 59.824219 21.125 60.488281 18.691406 C 60.5625 18.433594 60.835938 17.4375 60.449219 17.160156 C 59.90625 16.78125 58.59375 18.222656 56.027344 19.9375 C 53.085938 21.886719 51.367188 22.269531 51.480469 22.707031 Z M 51.480469 22.707031 " fill-opacity="1" fill-rule="nonzero"/><path fill="#000000" d="M 49.8125 24.082031 C 49.5625 23.804688 49.238281 23.457031 48.699219 23.304688 C 48.441406 23.230469 48.183594 23.207031 47.921875 23.230469 L 39.445312 23.296875 L 30.980469 23.230469 C 30.71875 23.207031 30.460938 23.230469 30.203125 23.304688 C 29.664062 23.457031 29.339844 23.804688 29.085938 24.082031 C 28.574219 24.652344 28.234375 25.3125 28.066406 26.0625 C 28.273438 25.6875 28.53125 25.347656 28.835938 25.042969 C 29.144531 24.746094 29.523438 24.371094 30.125 24.195312 C 30.308594 24.136719 30.496094 24.101562 30.691406 24.089844 L 48.210938 24.089844 C 48.40625 24.101562 48.59375 24.136719 48.777344 24.195312 C 49.375 24.371094 49.757812 24.746094 50.066406 25.042969 C 50.371094 25.347656 50.625 25.6875 50.835938 26.0625 C 50.710938 25.570312 50.453125 24.777344 49.8125 24.082031 Z M 49.8125 24.082031 " fill-opacity="1" fill-rule="nonzero"/><path fill="#000000" d="M 58.425781 28.417969 C 57.800781 28.800781 57.128906 29.066406 56.410156 29.21875 C 55.613281 29.382812 54.8125 29.402344 54.007812 29.285156 C 53.359375 29.1875 53.488281 29.113281 51.285156 28.460938 C 50.390625 28.191406 49.945312 28.070312 49.367188 27.988281 C 48.871094 27.917969 48.375 27.882812 47.871094 27.894531 L 31.03125 27.894531 C 30.523438 27.882812 30.023438 27.917969 29.523438 27.988281 C 28.957031 28.070312 28.511719 28.191406 27.617188 28.460938 C 25.414062 29.113281 25.535156 29.1875 24.894531 29.285156 C 24.089844 29.402344 23.289062 29.382812 22.492188 29.21875 C 21.773438 29.066406 21.101562 28.800781 20.476562 28.417969 C 19.550781 27.832031 18.832031 27.054688 18.324219 26.082031 C 18.613281 27.089844 19.144531 27.953125 19.917969 28.660156 C 21.058594 29.699219 22.296875 29.941406 22.921875 30.0625 C 23.832031 30.152344 24.738281 30.117188 25.640625 29.957031 C 26.371094 29.804688 27.085938 29.601562 27.785156 29.339844 L 28.011719 29.253906 C 28.117188 29.203125 28.230469 29.164062 28.34375 29.128906 C 28.945312 28.941406 29.5625 28.84375 30.195312 28.832031 L 48.707031 28.832031 C 49.335938 28.84375 49.957031 28.941406 50.558594 29.128906 C 50.671875 29.164062 50.78125 29.207031 50.890625 29.253906 L 51.117188 29.339844 C 51.816406 29.601562 52.53125 29.804688 53.261719 29.957031 C 54.164062 30.117188 55.070312 30.152344 55.980469 30.0625 C 56.605469 29.941406 57.84375 29.699219 58.976562 28.660156 C 59.753906 27.953125 60.289062 27.09375 60.578125 26.082031 C 60.070312 27.054688 59.351562 27.832031 58.425781 28.417969 Z M 58.425781 28.417969 " fill-opacity="1" fill-rule="nonzero"/><path fill="#000000" d="M 10.886719 33.445312 C 9.777344 33.476562 8.90625 34.355469 8.90625 35.425781 L 8.90625 38.398438 C 8.90625 39.519531 9.828125 40.382812 10.886719 40.382812 L 13.859375 40.382812 C 14.96875 40.382812 15.839844 39.449219 15.839844 38.398438 L 14.851562 38.398438 C 14.851562 38.945312 14.40625 39.390625 13.859375 39.390625 L 10.886719 39.390625 C 10.34375 39.390625 9.894531 38.945312 9.894531 38.398438 L 9.894531 35.425781 C 9.894531 34.882812 10.34375 34.4375 10.886719 34.4375 L 13.859375 34.4375 C 14.40625 34.4375 14.851562 34.882812 14.851562 35.425781 L 15.839844 35.425781 C 15.8125 34.328125 14.921875 33.445312 13.859375 33.445312 Z M 10.886719 33.445312 " fill-opacity="1" fill-rule="nonzero"/><path fill="#000000" d="M 22.460938 34.4375 C 23.003906 34.4375 23.453125 34.882812 23.453125 35.425781 L 23.453125 37.410156 L 18.496094 37.410156 L 18.496094 35.425781 C 18.496094 34.882812 18.941406 34.4375 19.488281 34.4375 Z M 24.441406 35.425781 C 24.410156 34.328125 23.519531 33.445312 22.460938 33.445312 L 19.488281 33.445312 C 18.378906 33.445312 17.503906 34.375 17.503906 35.425781 L 17.503906 40.382812 L 18.496094 40.382812 L 18.496094 38.398438 L 23.453125 38.398438 L 23.453125 40.382812 L 24.441406 40.382812 Z M 24.441406 35.425781 " fill-opacity="1" fill-rule="nonzero"/><path fill="#000000" d="M 32.25 36.417969 C 32.25 36.960938 31.804688 37.410156 31.257812 37.410156 L 27.292969 37.410156 L 27.292969 34.4375 L 31.257812 34.4375 C 31.804688 34.4375 32.25 34.882812 32.25 35.425781 Z M 33.238281 40.382812 L 33.238281 39.675781 L 31.863281 38.300781 C 32.683594 38.023438 33.238281 37.261719 33.238281 36.417969 L 33.238281 35.425781 C 33.238281 34.328125 32.296875 33.445312 31.257812 33.445312 L 26.304688 33.445312 L 26.304688 40.382812 L 27.292969 40.382812 L 27.292969 38.398438 L 30.554688 38.398438 L 32.535156 40.382812 Z M 33.238281 40.382812 " fill-opacity="1" fill-rule="nonzero"/><path fill="#000000" d="M 41.839844 38.398438 C 41.839844 37.300781 40.898438 36.417969 39.859375 36.417969 L 36.886719 36.417969 C 36.34375 36.417969 35.894531 35.972656 35.894531 35.425781 C 35.894531 34.882812 36.34375 34.4375 36.886719 34.4375 L 39.859375 34.4375 C 40.40625 34.4375 40.847656 34.882812 40.847656 35.425781 L 41.839844 35.425781 C 41.8125 34.328125 40.917969 33.445312 39.859375 33.445312 L 36.886719 33.445312 C 35.777344 33.445312 34.90625 34.375 34.90625 35.425781 C 34.90625 36.546875 35.824219 37.410156 36.886719 37.410156 L 39.859375 37.410156 C 40.40625 37.410156 40.847656 37.855469 40.847656 38.398438 C 40.847656 38.945312 40.40625 39.390625 39.859375 39.390625 L 36.886719 39.390625 C 36.34375 39.390625 35.894531 38.945312 35.894531 38.398438 L 34.90625 38.398438 C 34.933594 39.519531 35.804688 40.382812 36.886719 40.382812 L 39.859375 40.382812 C 40.96875 40.382812 41.839844 39.449219 41.839844 38.398438 Z M 41.839844 38.398438 " fill-opacity="1" fill-rule="nonzero"/><path fill="#000000" d="M 50.042969 34.4375 L 50.042969 33.445312 L 43.109375 33.445312 L 43.109375 34.4375 L 46.082031 34.4375 L 46.082031 40.382812 L 47.070312 40.382812 L 47.070312 34.4375 Z M 50.042969 34.4375 " fill-opacity="1" fill-rule="nonzero"/><path fill="#000000" d="M 51.410156 40.382812 L 52.402344 40.382812 L 52.402344 33.445312 L 51.410156 33.445312 Z M 51.410156 40.382812 " fill-opacity="1" fill-rule="nonzero"/><path fill="#000000" d="M 55.257812 34.4375 L 61.203125 34.4375 L 61.203125 33.445312 L 54.265625 33.445312 L 54.265625 40.382812 L 61.203125 40.382812 L 61.203125 39.390625 L 55.257812 39.390625 L 55.257812 37.410156 L 60.210938 37.410156 L 60.210938 36.417969 L 55.257812 36.417969 Z M 55.257812 34.4375 " fill-opacity="1" fill-rule="nonzero"/><path fill="#000000" d="M 69.703125 38.398438 C 69.703125 37.300781 68.761719 36.417969 67.722656 36.417969 L 64.746094 36.417969 C 64.203125 36.417969 63.757812 35.972656 63.757812 35.425781 C 63.757812 34.882812 64.203125 34.4375 64.746094 34.4375 L 67.722656 34.4375 C 68.265625 34.4375 68.710938 34.882812 68.710938 35.425781 L 69.703125 35.425781 C 69.671875 34.328125 68.78125 33.445312 67.722656 33.445312 L 64.746094 33.445312 C 63.640625 33.445312 62.765625 34.375 62.765625 35.425781 C 62.765625 36.546875 63.6875 37.410156 64.746094 37.410156 L 67.722656 37.410156 C 68.265625 37.410156 68.710938 37.855469 68.710938 38.398438 C 68.710938 38.945312 68.265625 39.390625 67.722656 39.390625 L 64.746094 39.390625 C 64.203125 39.390625 63.757812 38.945312 63.757812 38.398438 L 62.765625 38.398438 C 62.796875 39.519531 63.667969 40.382812 64.746094 40.382812 L 67.722656 40.382812 C 68.832031 40.382812 69.703125 39.449219 69.703125 38.398438 Z M 69.703125 38.398438 " fill-opacity="1" fill-rule="nonzero"/><path fill="#000000" d="M 15.679688 47.148438 C 16.074219 47.324219 16.605469 47.421875 17.066406 47.421875 C 17.761719 47.421875 18.53125 47.179688 18.53125 46.53125 C 18.53125 45.925781 17.878906 45.792969 17.046875 45.660156 C 16.492188 45.574219 16.023438 45.507812 16.023438 45.097656 C 16.023438 44.671875 16.539062 44.511719 17.089844 44.511719 C 17.527344 44.511719 17.9375 44.597656 18.296875 44.765625 C 18.339844 44.671875 18.371094 44.574219 18.414062 44.472656 C 18.015625 44.300781 17.570312 44.203125 17.101562 44.203125 C 16.382812 44.203125 15.695312 44.460938 15.695312 45.109375 C 15.695312 46.292969 18.203125 45.691406 18.203125 46.542969 C 18.203125 46.964844 17.640625 47.128906 17.078125 47.128906 C 16.609375 47.128906 16.15625 47.03125 15.769531 46.867188 Z M 15.679688 47.148438 " fill-opacity="1" fill-rule="nonzero"/><path fill="#000000" d="M 22.414062 47.359375 L 22.414062 47.054688 L 20.058594 47.054688 L 20.058594 45.96875 L 22.160156 45.96875 L 22.160156 45.65625 L 20.058594 45.65625 L 20.058594 44.566406 L 22.414062 44.566406 L 22.414062 44.261719 L 19.734375 44.261719 L 19.734375 47.359375 Z M 22.414062 47.359375 " fill-opacity="1" fill-rule="nonzero"/><path fill="#000000" d="M 26.308594 47.359375 L 26.308594 47.054688 L 23.957031 47.054688 L 23.957031 44.261719 L 23.628906 44.261719 L 23.628906 47.359375 Z M 26.308594 47.359375 " fill-opacity="1" fill-rule="nonzero"/><path fill="#000000" d="M 30.027344 47.359375 L 30.027344 47.054688 L 27.671875 47.054688 L 27.671875 44.261719 L 27.347656 44.261719 L 27.347656 47.359375 Z M 30.027344 47.359375 " fill-opacity="1" fill-rule="nonzero"/><path fill="#000000" d="M 34.367188 47.359375 L 34.367188 46.152344 L 35.882812 44.261719 L 35.523438 44.261719 L 34.207031 45.878906 L 32.886719 44.261719 L 32.523438 44.261719 L 34.042969 46.152344 L 34.042969 47.359375 Z M 34.367188 47.359375 " fill-opacity="1" fill-rule="nonzero"/><path fill="#000000" d="M 40.035156 45.8125 C 40.035156 44.671875 39.292969 44.203125 38.359375 44.203125 C 37.421875 44.203125 36.679688 44.671875 36.679688 45.8125 C 36.679688 46.953125 37.421875 47.421875 38.359375 47.421875 C 39.292969 47.421875 40.035156 46.953125 40.035156 45.8125 Z M 39.710938 45.8125 C 39.710938 46.742188 39.105469 47.117188 38.359375 47.117188 C 37.609375 47.117188 37.003906 46.742188 37.003906 45.8125 C 37.003906 44.882812 37.613281 44.503906 38.359375 44.503906 C 39.101562 44.503906 39.710938 44.882812 39.710938 45.8125 Z M 39.710938 45.8125 " fill-opacity="1" fill-rule="nonzero"/><path fill="#000000" d="M 43.921875 45.8125 C 43.921875 46.742188 43.390625 47.117188 42.730469 47.117188 C 42.070312 47.117188 41.539062 46.742188 41.539062 45.8125 L 41.539062 44.261719 L 41.210938 44.261719 L 41.210938 45.8125 C 41.210938 46.953125 41.882812 47.421875 42.730469 47.421875 C 43.578125 47.421875 44.246094 46.953125 44.246094 45.8125 L 44.246094 44.261719 L 43.921875 44.261719 Z M 43.921875 45.8125 " fill-opacity="1" fill-rule="nonzero"/><path fill="#000000" d="M 48.496094 47.359375 L 47.664062 46.273438 C 48.15625 46.21875 48.523438 45.898438 48.523438 45.269531 C 48.523438 44.5625 48.050781 44.261719 47.453125 44.261719 L 45.578125 44.261719 L 45.578125 47.359375 L 45.90625 47.359375 L 45.90625 46.277344 L 47.265625 46.277344 L 48.097656 47.359375 Z M 47.453125 44.566406 C 47.859375 44.566406 48.195312 44.773438 48.195312 45.269531 C 48.195312 45.769531 47.859375 45.972656 47.453125 45.972656 L 45.90625 45.972656 L 45.90625 44.566406 Z M 47.453125 44.566406 " fill-opacity="1" fill-rule="nonzero"/><path fill="#000000" d="M 54.390625 46.867188 C 54.03125 47.027344 53.625 47.117188 53.207031 47.117188 C 52.460938 47.117188 51.855469 46.742188 51.855469 45.8125 C 51.855469 44.882812 52.464844 44.503906 53.207031 44.503906 C 53.625 44.503906 54.03125 44.597656 54.390625 44.765625 L 54.484375 44.472656 C 54.097656 44.300781 53.664062 44.203125 53.207031 44.203125 C 52.273438 44.203125 51.53125 44.671875 51.53125 45.8125 C 51.53125 46.953125 52.273438 47.421875 53.207031 47.421875 C 53.664062 47.421875 54.097656 47.324219 54.484375 47.148438 Z M 54.390625 46.867188 " fill-opacity="1" fill-rule="nonzero"/><path fill="#000000" d="M 58.851562 47.359375 L 57.203125 44.261719 L 56.894531 44.261719 L 55.242188 47.359375 L 55.609375 47.359375 L 56.007812 46.613281 L 58.085938 46.613281 C 58.21875 46.859375 58.351562 47.113281 58.488281 47.359375 Z M 57.925781 46.300781 L 56.167969 46.300781 L 57.054688 44.640625 C 57.34375 45.191406 57.632812 45.75 57.925781 46.300781 Z M 57.925781 46.300781 " fill-opacity="1" fill-rule="nonzero"/><path fill="#000000" d="M 62.792969 47.359375 L 61.964844 46.273438 C 62.453125 46.21875 62.820312 45.898438 62.820312 45.269531 C 62.820312 44.5625 62.351562 44.261719 61.75 44.261719 L 59.878906 44.261719 L 59.878906 47.359375 L 60.203125 47.359375 L 60.203125 46.277344 L 61.566406 46.277344 L 62.398438 47.359375 Z M 61.75 44.566406 C 62.160156 44.566406 62.496094 44.773438 62.496094 45.269531 C 62.496094 45.769531 62.160156 45.972656 61.75 45.972656 L 60.203125 45.972656 L 60.203125 44.566406 Z M 61.75 44.566406 " fill-opacity="1" fill-rule="nonzero"/></svg>